PathFileType	4	(X/Y/Z)	walk-thru1-3-TP.trc
DataRate	CameraRate	NumFrames	NumMarkers	Units	OrigDataRate	OrigDataStartFrame	OrigNumFrames
120.00	120.00	       4	60	mm	120.00	133	       529
Frame#	Time	Top.Head			Front.Head			Rear.Head			Jaw			C7			R.Clavicle			L.Clavicle			R.Shoulder			L.Shoulder			R.Scapula			L.Scapula			R.Scap.Inf			R.Biceps.Lateral			R.Elbow			R.Elbow.Medial			R.Forearm			R.Ulna			R.Radius			R.Wrist			R.Thumb.M1			R.Thumb.M2			R.Thumb.M3			R.Finger3.M1			R.Finger3.M2			R.Finger3.M3			L.Biceps.Lateral			L.Elbow			L.Elbow.Medial			L.Forearm			L.Ulna			L.Radius			L.Wrist			L.Thumb.M1			L.Thumb.M2			L.Thumb.M3			L.Finger3.M1			L.Finger3.M2			L.Finger3.M3			V.Sacral			R.ASIS			L.ASIS			R.Thigh			R.Thigh.Front			R.Knee			R.Knee.Medial			R.Shank			R.Ankle			R.Ankle.Medial			R.Heel			R.Toe			R.MedFoot			L.Thigh			L.Knee			L.Knee.Medial			L.Shank			L.Ankle			L.Ankle.Medial			L.Heel			L.Toe			L.MedFoot			V_mid_ASIS			V_R_Knee_JC			V_L_Knee_JC			V_R_Elbow_JC			V_L_Elbow_JC			V_R_Ankle_JC			V_L_Ankle_JC			V_R_Wrist_JC			V_L_Wrist_JC			V_R_ScaTrpz_1stMC_JC			V_R_1stMC_1stPP_JC			V_R_1stPP_1stDP_JC			V_R_LunCap_3rdMC_JC			V_R_3rdMC_3rdPP_JC			V_R_3rdPP_3rdMP_JC			V_R_3rdMP_3rdDP_JC			V_L_ScaTrpz_1stMC_JC			V_L_1stMC_1stPP_JC			V_L_1stPP_1stDP_JC			V_L_LunCap_3rdMC_JC			V_L_3rdMC_3rdPP_JC			V_L_3rdPP_3rdMP_JC			V_L_3rdMP_3rdPP_JC			V_ROOT_JC			V_R_Hip_JC			V_L_Hip_JC			V_R_GlenHum_JC			V_L_GlenHum_JC			V_ForeHead_Ctr			V_Vertex			V_Sagit_Lambdoid_Suture			V_R_FrontoTemp			V_L_FrontoTemporal			V_R_ParietalOccip			V_L_ParietalOcciptal			V_R_Temporal			V_L_Temporal			V_mid_FrontRearHead			V_mid_RLGlenHumCtrs			V_C7_vert			V_C1_vert			V_Mid_Hip			
		X1	Y1	Z1	X2	Y2	Z2	X3	Y3	Z3	X4	Y4	Z4	X5	Y5	Z5	X6	Y6	Z6	X7	Y7	Z7	X8	Y8	Z8	X9	Y9	Z9	X10	Y10	Z10	X11	Y11	Z11	X12	Y12	Z12	X13	Y13	Z13	X14	Y14	Z14	X15	Y15	Z15	X16	Y16	Z16	X17	Y17	Z17	X18	Y18	Z18	X19	Y19	Z19	X20	Y20	Z20	X21	Y21	Z21	X22	Y22	Z22	X23	Y23	Z23	X24	Y24	Z24	X25	Y25	Z25	X26	Y26	Z26	X27	Y27	Z27	X28	Y28	Z28	X29	Y29	Z29	X30	Y30	Z30	X31	Y31	Z31	X32	Y32	Z32	X33	Y33	Z33	X34	Y34	Z34	X35	Y35	Z35	X36	Y36	Z36	X37	Y37	Z37	X38	Y38	Z38	X39	Y39	Z39	X40	Y40	Z40	X41	Y41	Z41	X42	Y42	Z42	X43	Y43	Z43	X44	Y44	Z44	X45	Y45	Z45	X46	Y46	Z46	X47	Y47	Z47	X48	Y48	Z48	X49	Y49	Z49	X50	Y50	Z50	X51	Y51	Z51	X52	Y52	Z52	X53	Y53	Z53	X54	Y54	Z54	X55	Y55	Z55	X56	Y56	Z56	X57	Y57	Z57	X58	Y58	Z58	X59	Y59	Z59	X60	Y60	Z60	

133	1.100	781.95947	94.24078	1797.43970	680.40350	82.70964	1687.53223	907.25702	91.23303	1698.74634	723.76105	83.04851	1520.32263	919.43140	84.99123	1562.68384	821.45331	199.97801	1467.07336	809.54901	-26.82388	1474.17114	862.56818	288.38828	1461.24023	875.61322	-123.00534	1483.76404	969.66986	172.03589	1476.93176	968.40680	2.62589	1485.78638	1017.64264	178.94363	1388.84082	912.64160	343.49237	1281.03003	946.70160	356.06854	1128.04907	961.18695	265.90381	1112.90100	857.70959	306.26682	1015.47644	890.50110	345.99152	913.37000	827.64575	286.68213	885.45331	831.27924	326.73260	836.97260	813.30298	283.61200	851.67914	775.14862	252.91936	809.12872	737.18402	254.53822	782.99799	788.50446	330.51129	768.07269	768.35638	292.55447	716.30457	778.00305	246.31123	692.26624	902.17023	-190.26601	1337.44385	923.63776	-237.45000	1164.47644	969.64233	-171.36850	1147.40527	859.75043	-212.47350	1057.84851	912.62445	-237.86879	969.29059	845.14905	-186.17905	916.92169	854.62445	-220.25807	859.89636	838.59613	-173.85405	850.79297	843.45398	-139.45821	800.73706	840.70337	-147.31192	738.94385	840.52167	-236.78352	785.12030	854.56476	-218.76884	728.15344	879.56079	-199.82800	686.23322	1012.81354	68.81668	1087.23352	911.49878	255.40047	1028.30261	915.66412	-118.36448	1028.15015	794.61682	197.10738	631.73669	707.41486	107.42306	580.06982	748.20874	165.20747	511.52310	759.53998	51.00118	516.70428	727.73383	115.65408	331.75146	809.45239	142.66617	73.40380	777.81152	45.49776	96.87338	866.23151	83.95664	46.19670	625.42975	95.55901	50.61126	697.81549	60.38298	74.48602	895.04688	-127.92982	641.20099	890.07526	-119.95500	490.61642	865.33325	-4.27948	480.94272	988.38959	-56.92414	318.55222	1209.89172	-50.14164	180.63441	1147.42822	35.69852	188.86748	1246.05115	18.19170	207.72604	1104.16614	-1.79309	51.43380	1118.63623	22.89829	92.72485																																																																																																																															
134	1.108	776.26373	93.11984	1798.15112	674.62012	83.51672	1687.27124	901.41870	92.33677	1698.65527	716.82965	85.71248	1520.97583	912.48187	85.79153	1562.73792	813.52460	200.78923	1466.70862	802.88397	-25.39913	1474.14001	855.42596	289.51599	1460.66284	870.14203	-121.33694	1484.22168	963.13446	173.12279	1476.47339	961.73602	3.46630	1485.78210	1010.12268	181.83539	1389.30823	904.33044	344.53180	1281.66919	938.49670	358.39081	1128.48682	953.19202	268.05383	1112.56519	849.29865	309.68155	1016.08948	882.80872	347.85895	913.75061	817.34595	288.82068	886.86890	823.59692	326.07196	838.85144	806.88513	284.51224	851.90198	767.03394	253.03369	810.97272	729.58789	254.17166	783.99188	779.64417	332.23297	768.55737	760.36615	294.09470	717.63635	770.25854	248.27827	693.77185	897.32690	-188.69336	1338.28601	920.14526	-236.71706	1165.33167	967.55859	-171.43837	1148.21472	856.43182	-211.79131	1057.72314	909.13751	-237.13135	970.09747	843.17560	-184.93800	916.69971	850.61377	-219.55095	861.09784	835.36005	-172.80118	851.18146	841.62592	-138.31306	800.58832	838.49005	-146.32635	739.52722	838.53308	-236.37189	784.77161	852.52350	-217.20615	728.37701	878.26379	-199.42671	686.72400	1005.85278	70.55434	1087.68286	903.57843	255.42049	1029.70728	911.33014	-118.15501	1028.04260	790.29187	198.95172	632.36713	703.37408	107.42985	579.99756	744.24689	166.72525	511.65237	756.03888	51.79056	517.16510	726.02814	116.61097	331.23029	809.35516	142.79720	73.36677	777.59222	45.22968	97.26522	866.21490	83.99757	46.21069	625.05823	95.75359	50.32419	697.81549	60.38298	74.48602	883.51080	-129.36722	641.35449	876.83881	-120.74314	491.39548	848.85260	-6.01794	481.25067	975.32788	-59.09235	319.83630	1199.89417	-51.10864	186.39816	1136.57129	33.16143	191.41591	1234.15442	16.15972	215.37906	1101.28394	-0.76042	52.48323	1110.77197	21.84853	95.45531																																																																																																																															
135	1.117	771.18854	95.37195	1798.77441	667.17151	83.70747	1688.65698	895.61584	93.38168	1698.42859	710.09827	84.57642	1521.03345	907.20026	86.89297	1563.30627	807.94635	202.13969	1466.91272	797.18060	-25.06820	1475.27600	848.60211	289.95404	1460.34973	864.03772	-121.35781	1485.63672	955.49011	175.36407	1477.02026	956.00000	5.11595	1485.77942	1003.65485	183.01579	1389.61316	896.69208	345.82794	1281.63782	930.18909	359.43753	1128.46191	947.30548	270.40378	1112.24377	841.42560	308.84903	1016.33136	873.83813	348.47433	913.65833	809.38800	290.17142	887.05975	814.09534	327.78717	838.25684	797.80316	283.19800	852.84637	758.66589	255.07439	810.53046	721.08746	255.61261	784.92206	771.36456	332.85309	769.70508	752.33008	294.19992	717.99255	761.41852	246.71646	693.65918	892.75781	-188.73286	1339.03784	915.77777	-235.23007	1165.35693	960.51630	-170.00903	1149.34351	852.16559	-211.42160	1058.35852	905.57080	-237.10387	970.25061	839.33740	-184.36069	916.60950	848.41473	-218.90860	860.93335	832.45013	-172.76715	851.67316	839.55469	-137.99364	801.67621	837.26031	-146.00674	739.57184	835.98767	-235.83585	785.18494	850.74451	-216.48645	728.60791	875.98444	-198.35184	686.86755	999.60974	71.65284	1088.76294	895.05811	255.65250	1029.58374	902.74341	-116.62784	1028.07385	785.30481	199.97334	632.07098	698.88232	109.16938	579.13348	739.83844	167.37500	510.89673	752.35181	53.20292	516.14636	723.34161	115.29121	331.08051	808.65289	142.70064	73.07047	777.54071	45.65830	97.72692	866.21490	83.99757	46.21069	625.22174	95.56938	49.79425	697.97528	60.20474	74.24873	873.08868	-129.56624	641.96906	862.95416	-121.83583	492.21454	835.87292	-7.84311	481.27390	963.40076	-62.75555	321.72293	1190.84790	-52.79115	192.25345	1126.69763	30.56183	197.58403	1224.20337	12.89835	222.19380	1095.75623	-0.24372	53.83002	1102.39722	20.28883	99.65086																																																																																																																															
136	1.125	765.00195	96.07504	1799.37952	662.26984	85.32113	1688.47339	889.87653	94.33298	1698.22729	704.17181	85.57915	1521.07690	900.44305	87.69252	1563.27124	800.92926	201.96385	1467.17407	791.14752	-25.61314	1474.93298	840.04321	290.35764	1460.40869	859.37677	-120.43546	1485.42188	948.65503	176.62097	1477.47107	950.12341	5.46370	1486.59070	996.16595	184.91525	1389.82190	888.41400	347.66119	1281.67700	922.12671	360.98480	1128.54309	939.85272	272.50565	1112.33582	834.73724	310.66525	1015.91138	864.24438	350.13596	914.02545	800.70325	290.73013	887.52301	805.85168	327.20609	838.87903	789.04352	284.35162	853.53058	750.54114	254.25206	811.55011	712.53979	255.02248	785.08142	761.68213	332.45248	769.81000	742.58948	292.24570	718.59497	752.32629	247.66547	694.48175	888.23029	-187.86728	1339.30005	912.18420	-234.60452	1165.68909	957.89282	-170.94417	1149.69458	847.89142	-211.24509	1058.29529	902.24799	-235.20750	970.63098	835.79254	-184.15741	916.95520	845.93982	-218.74197	860.70270	829.58398	-171.30234	851.54431	835.32129	-139.00443	801.15723	833.52167	-145.94612	739.94000	832.91168	-234.54269	785.72443	848.56134	-215.65115	728.91998	874.24005	-197.60460	686.87122	992.82446	73.02802	1089.16870	893.16132	257.40866	1029.65051	896.75604	-115.60181	1027.72144	780.58685	200.26910	632.09900	695.00464	109.87801	579.06036	737.32733	167.74364	511.15820	748.05597	54.35470	515.52582	720.62109	116.51702	330.89990	808.39703	142.87895	72.74241	777.31665	45.84426	97.76285	866.94592	85.19867	46.33871	625.22766	95.54491	49.72276	697.70300	60.58463	74.20228	863.02930	-130.15387	642.22034	849.14380	-123.07564	492.98914	817.18988	-9.70591	482.13312	951.39886	-61.88774	323.88791	1179.99976	-55.07898	197.00684	1116.44080	28.97842	203.30589	1212.88904	10.49300	229.36806	1089.35242	-0.95527	55.85519	1095.34204	20.37016	104.71100																																																																																																																															
